<svg height="512pt" viewBox="-31 0 512 512" width="512pt" xmlns="http://www.w3.org/2000/svg"><path d="m248.101562 512h-46.203124c-44.398438 0-79.199219-39-74.398438-83.402344l22.5-203.398437h150l22.5 203.398437c4.800781 44.402344-30 83.402344-74.398438 83.402344zm0 0" fill="#ffcebf"/><path d="m248.101562 512h-23.101562v-286.800781h75l22.5 203.398437c4.800781 44.402344-30 83.402344-74.398438 83.402344zm0 0" fill="#ffa78f"/><path d="m450 196c0 25.800781-6 42.898438-18.601562 53.398438-22.796876 18.601562-62.398438 9.601562-94.199219 3.902343-10.5-1.800781-22.199219-3.902343-34.5-5.703125-23.097657-3.597656-49.199219-6.597656-77.699219-6.597656s-54.601562 3-77.699219 6.597656c-12.300781 1.800782-24 3.902344-34.5 5.703125-42.902343 7.5-73.800781 13.199219-94.199219-3.902343-12.601562-10.5-18.601562-27.597657-18.601562-53.398438 0-9.300781.902344-18.898438 2.402344-28.199219l69.898437-55.203125 11.398438-70.796875c36-24.898437 83.402343-41.800781 141.300781-41.800781 72.597656 0 128.402344 25.902344 166.5 62.5l-1.5 90.300781zm0 0" fill="#e63950"/><path d="m450 196c0 25.800781-6 42.898438-18.601562 53.398438-22.796876 18.601562-62.398438 9.601562-94.199219 3.902343-10.5-1.800781-22.199219-3.902343-34.5-5.703125-23.097657-3.597656-49.199219-6.597656-77.699219-6.597656v-241c72.597656 0 128.402344 25.902344 166.5 62.5l-1.5 90.300781zm0 0" fill="#cc2e43"/><path d="m120 106c0 41.398438-33.601562 75-75 75-15.300781 0-30.300781-4.800781-42.597656-13.199219 7.796875-47.703125 35.398437-94.199219 81.296875-126 4.800781 2.699219 9.300781 6.300781 13.199219 10.199219 15 14.097656 23.101562 33.300781 23.101562 54zm0 0" fill="#f89580"/><path d="m180 76c-24.902344 0-45 20.097656-45 45 0 24.898438 20.097656 45 45 45s45-20.101562 45-45c0-24.902344-20.097656-45-45-45zm0 0" fill="#f89580"/><g fill="#ec806b"><path d="m285 54.789062 21.210938 21.207032-21.210938 21.210937-21.210938-21.210937zm0 0"/><path d="m255 144.785156 21.210938 21.210938-21.210938 21.210937-21.210938-21.210937zm0 0"/><path d="m450 196c-12.597656 9.300781-28.199219 15-45 15-41.398438 0-75-33.601562-75-75 0-28.800781 15.902344-54.601562 41.699219-67.199219 6.300781-3 12.902343-5.402343 19.800781-6.300781 38.402344 36.902344 58.5 85.800781 58.5 133.5zm0 0"/></g></svg>